<?xml version="1.0" standalone="no"?>
<!DOCTYPE svg PUBLIC "-//W3C//DTD SVG 20010904//EN"
 "http://www.w3.org/TR/2001/REC-SVG-20010904/DTD/svg10.dtd">
<svg version="1.0" xmlns="http://www.w3.org/2000/svg"
 width="145.000000pt" height="145.000000pt" viewBox="0 0 145.000000 145.000000"
 preserveAspectRatio="xMidYMid meet">
<metadata>
Created by potrace 1.14, written by Peter Selinger 2001-2017
</metadata>
<g transform="translate(0.000000,145.000000) scale(0.100000,-0.100000)"
fill="#000000" stroke="none">
<path d="M407 1412 c-10 -10 -17 -23 -17 -28 0 -5 7 0 16 11 13 17 17 18 37 6
22 -14 22 -14 3 8 -23 25 -19 25 -39 3z"/>
<path d="M180 700 l0 -530 396 0 c371 0 395 1 392 17 -2 14 -15 19 -61 21
l-57 3 0 34 0 35 155 0 155 0 0 135 c0 113 -2 135 -15 135 -12 0 -15 -19 -15
-115 l0 -115 -200 0 c-193 0 -200 -1 -200 -20 0 -17 7 -20 40 -20 39 0 40 -1
40 -35 l0 -35 -300 0 -300 0 0 95 0 95 85 0 c69 0 85 3 85 15 0 12 -16 15 -85
15 l-85 0 0 175 0 175 55 0 54 0 3 -137 3 -138 83 -3 82 -3 0 -89 0 -90 -90 0
c-84 0 -90 -1 -90 -20 0 -20 5 -20 157 -18 141 3 158 5 161 20 3 15 -5 18 -52
18 l-56 0 0 90 0 90 125 0 125 0 0 -35 0 -35 -80 0 c-64 0 -80 -3 -80 -15 0
-13 31 -15 215 -15 l215 0 0 145 c0 122 -2 145 -15 145 -13 0 -15 -21 -15
-130 l0 -131 -102 3 -103 3 -3 53 -3 52 -220 0 -219 0 0 120 0 120 80 0 c73 0
80 2 80 20 0 19 -7 20 -155 20 l-155 0 0 125 0 125 65 0 c51 0 65 3 65 15 0
12 -14 15 -65 15 l-65 0 0 45 0 45 75 0 c68 0 75 2 75 20 0 19 -7 20 -90 20
l-90 0 0 -530z"/>
<path d="M492 1213 c2 -13 15 -19 46 -21 l42 -3 0 -45 0 -44 -70 0 -70 0 0
-65 0 -64 -57 -3 c-44 -2 -58 -7 -58 -18 0 -13 25 -15 153 -18 111 -2 152 -6
153 -15 1 -6 1 -45 1 -84 0 -65 2 -73 19 -73 17 0 19 8 19 85 l0 85 50 0 50 0
0 -130 0 -130 -150 0 c-127 0 -150 -2 -150 -15 0 -13 25 -15 165 -15 l165 0 0
35 0 35 50 0 50 0 0 -90 c0 -73 3 -90 15 -90 13 0 15 21 15 125 l0 125 100 0
c93 0 100 -1 100 -20 0 -11 7 -20 15 -20 13 0 15 28 15 195 0 167 -2 195 -15
195 -13 0 -15 -24 -15 -160 l0 -160 -115 0 -115 0 0 -30 c0 -29 -1 -30 -50
-30 l-50 0 0 89 0 90 48 3 47 3 3 83 c3 77 2 82 -18 82 -18 0 -20 -6 -20 -65
l0 -65 -190 0 -190 0 0 50 0 50 140 0 c120 0 139 2 134 15 -5 11 -23 15 -75
15 l-69 0 0 45 0 45 200 0 200 0 0 -129 c0 -105 3 -130 15 -135 13 -5 15 14
15 129 l0 135 100 0 100 0 0 -264 0 -263 -32 -1 c-79 -1 -88 -2 -88 -17 0 -12
13 -15 60 -15 l60 0 0 -210 0 -210 -75 0 c-69 0 -75 -2 -75 -20 0 -20 5 -21
93 -18 l92 3 0 525 0 525 -393 3 c-371 2 -393 1 -390 -15z"/>
<path d="M1011 76 c-6 -7 -9 -21 -5 -30 8 -21 40 -21 48 0 6 16 -9 44 -24 44
-4 0 -13 -6 -19 -14z"/>
</g>
</svg>
